<svg width="160" height="13" viewBox="0 0 160 13" fill="none" xmlns="http://www.w3.org/2000/svg">
<path d="M8.5619 11.2677L0 7.46898V6.01379L8.5619 1.73284V4.24557L3.30801 6.63986L8.5619 8.77188V11.2677Z" fill="#151414"/>
<path d="M19.7559 4.33171C19.7026 4.11431 19.6185 3.92357 19.5037 3.75949C19.3888 3.5913 19.2452 3.44978 19.073 3.33493C18.9048 3.21597 18.7079 3.12778 18.4823 3.07035C18.2608 3.00882 18.0167 2.97805 17.7501 2.97805C17.1758 2.97805 16.6856 3.11547 16.2795 3.3903C15.8775 3.66514 15.5698 4.06098 15.3565 4.57783C15.1473 5.09469 15.0427 5.71819 15.0427 6.44835C15.0427 7.18671 15.1432 7.81842 15.3442 8.34347C15.5452 8.86853 15.8447 9.27053 16.2426 9.54946C16.6405 9.8284 17.1348 9.96787 17.7255 9.96787C18.2464 9.96787 18.6792 9.89198 19.0237 9.74021C19.3724 9.58843 19.6329 9.37308 19.8052 9.09414C19.9774 8.8152 20.0636 8.48704 20.0636 8.10966L20.6543 8.17119H17.7747V5.7346H23.3616V7.48205C23.3616 8.63061 23.1175 9.61304 22.6294 10.4293C22.1454 11.2415 21.4767 11.865 20.6235 12.2999C19.7744 12.7306 18.8002 12.9459 17.7008 12.9459C16.4743 12.9459 15.3976 12.6854 14.4705 12.1645C13.5435 11.6435 12.8195 10.9011 12.2985 9.9371C11.7816 8.97313 11.5232 7.82662 11.5232 6.49757C11.5232 5.45566 11.6811 4.53271 11.997 3.72872C12.317 2.92473 12.76 2.24585 13.3261 1.69208C13.8921 1.1342 14.5464 0.713748 15.2889 0.43071C16.0313 0.14357 16.8271 0 17.6762 0C18.4228 0 19.116 0.106652 19.7559 0.319956C20.4 0.529158 20.9681 0.828604 21.4603 1.21829C21.9567 1.60388 22.3566 2.06126 22.6602 2.59041C22.9637 3.11957 23.1483 3.70001 23.2139 4.33171H19.7559Z" fill="#151414"/>
<path d="M32.4142 0.172284H35.8353V8.24502C35.8353 9.20489 35.6056 10.0355 35.1461 10.737C34.6908 11.4343 34.055 11.9737 33.2387 12.3552C32.4224 12.7326 31.4748 12.9213 30.396 12.9213C29.309 12.9213 28.3573 12.7326 27.541 12.3552C26.7247 11.9737 26.0889 11.4343 25.6336 10.737C25.1824 10.0355 24.9568 9.20489 24.9568 8.24502V0.172284H28.3778V7.94968C28.3778 8.33937 28.464 8.68804 28.6363 8.99569C28.8085 9.29924 29.0465 9.53716 29.35 9.70944C29.6577 9.88172 30.0063 9.96787 30.396 9.96787C30.7898 9.96787 31.1385 9.88172 31.442 9.70944C31.7456 9.53716 31.9835 9.29924 32.1558 8.99569C32.3281 8.68804 32.4142 8.33937 32.4142 7.94968V0.172284Z" fill="#151414"/>
<path d="M37.1166 2.92883V0.172284H48.069V2.92883H44.2787V12.7736H40.9069V2.92883H37.1166Z" fill="#151414"/>
<path d="M60.9718 6.47296C60.9718 7.87585 60.6991 9.05927 60.1535 10.0232C59.6079 10.9831 58.8716 11.7112 57.9446 12.2076C57.0175 12.6998 55.9838 12.9459 54.8434 12.9459C53.6949 12.9459 52.6571 12.6977 51.73 12.2014C50.8071 11.701 50.0728 10.9708 49.5272 10.0109C48.9858 9.04697 48.7151 7.86764 48.7151 6.47296C48.7151 5.07008 48.9858 3.8887 49.5272 2.92883C50.0728 1.96486 50.8071 1.23675 51.73 0.744513C52.6571 0.248171 53.6949 0 54.8434 0C55.9838 0 57.0175 0.248171 57.9446 0.744513C58.8716 1.23675 59.6079 1.96486 60.1535 2.92883C60.6991 3.8887 60.9718 5.07008 60.9718 6.47296ZM57.4523 6.47296C57.4523 5.71819 57.3518 5.08238 57.1508 4.56553C56.9539 4.04457 56.6606 3.65078 56.2709 3.38415C55.8854 3.11342 55.4095 2.97805 54.8434 2.97805C54.2774 2.97805 53.7995 3.11342 53.4098 3.38415C53.0242 3.65078 52.7309 4.04457 52.5299 4.56553C52.333 5.08238 52.2346 5.71819 52.2346 6.47296C52.2346 7.22773 52.333 7.86559 52.5299 8.38654C52.7309 8.9034 53.0242 9.29719 53.4098 9.56792C53.7995 9.83455 54.2774 9.96787 54.8434 9.96787C55.4095 9.96787 55.8854 9.83455 56.2709 9.56792C56.6606 9.29719 56.9539 8.9034 57.1508 8.38654C57.3518 7.86559 57.4523 7.22773 57.4523 6.47296Z" fill="#151414"/>
<path d="M67.4033 12.7736H62.5547V0.172284H67.354C68.6503 0.172284 69.7701 0.424557 70.7136 0.929104C71.6611 1.42955 72.3913 2.1515 72.904 3.09496C73.4209 4.03432 73.6793 5.16032 73.6793 6.47296C73.6793 7.7856 73.423 8.91365 72.9102 9.85711C72.3975 10.7965 71.6714 11.5184 70.732 12.023C69.7927 12.5234 68.6831 12.7736 67.4033 12.7736ZM65.9758 9.86942H67.2802C67.9037 9.86942 68.4349 9.76892 68.8738 9.56792C69.3168 9.36692 69.6532 9.0203 69.8829 8.52806C70.1167 8.03582 70.2336 7.35079 70.2336 6.47296C70.2336 5.59513 70.1147 4.9101 69.8768 4.41786C69.643 3.92562 69.2984 3.579 68.8431 3.378C68.3918 3.177 67.8381 3.0765 67.1818 3.0765H65.9758V9.86942Z" fill="#151414"/>
<path d="M78.6833 0.172284V12.7736H75.2622V0.172284H78.6833Z" fill="#151414"/>
<path d="M83.578 12.7736H79.8862L84.0456 0.172284H88.7219L92.8813 12.7736H89.1895L86.433 3.64258H86.3345L83.578 12.7736ZM82.8888 7.80201H89.8294V10.3617H82.8888V7.80201Z" fill="#151414"/>
<path d="M100.397 4.11021C100.364 3.70001 100.211 3.38005 99.9357 3.15034C99.665 2.92063 99.2528 2.80577 98.699 2.80577C98.3462 2.80577 98.057 2.84884 97.8314 2.93498C97.6099 3.01702 97.4458 3.12983 97.3392 3.2734C97.2325 3.41697 97.1771 3.58105 97.173 3.76564C97.1648 3.91741 97.1915 4.05483 97.253 4.17789C97.3186 4.29685 97.4212 4.40555 97.5607 4.504C97.7001 4.59834 97.8786 4.68449 98.096 4.76242C98.3134 4.84036 98.5718 4.9101 98.8713 4.97163L99.905 5.19314C100.602 5.34081 101.199 5.53565 101.695 5.77767C102.192 6.01969 102.598 6.30478 102.914 6.63294C103.23 6.957 103.461 7.32207 103.609 7.72817C103.761 8.13427 103.839 8.57729 103.843 9.05722C103.839 9.88583 103.632 10.5873 103.221 11.1615C102.811 11.7358 102.225 12.1727 101.462 12.4721C100.703 12.7716 99.7901 12.9213 98.7236 12.9213C97.6284 12.9213 96.6726 12.7593 95.8563 12.4352C95.0441 12.1112 94.4124 11.6128 93.9612 10.94C93.5141 10.2632 93.2884 9.39769 93.2843 8.34347H96.5331C96.5536 8.72906 96.65 9.05312 96.8223 9.31565C96.9946 9.57818 97.2366 9.77712 97.5484 9.91249C97.8642 10.0479 98.2395 10.1155 98.6744 10.1155C99.0394 10.1155 99.345 10.0704 99.5912 9.98017C99.8373 9.88993 100.024 9.76482 100.151 9.60484C100.278 9.44486 100.344 9.26232 100.348 9.05722C100.344 8.86443 100.28 8.69624 100.157 8.55267C100.038 8.405 99.8414 8.27374 99.5666 8.15888C99.2917 8.03992 98.9205 7.92917 98.4529 7.82662L97.1977 7.55589C96.0819 7.31387 95.202 6.90982 94.558 6.34375C93.9181 5.77357 93.6002 4.99624 93.6043 4.01176C93.6002 3.21187 93.8135 2.51248 94.2442 1.91358C94.679 1.31059 95.28 0.84091 96.047 0.504546C96.8182 0.168182 97.7022 0 98.699 0C99.7163 0 100.596 0.170233 101.339 0.510699C102.081 0.851165 102.653 1.3311 103.055 1.9505C103.461 2.5658 103.666 3.2857 103.671 4.11021H100.397Z" fill="#151414"/>
<path d="M109.993 12.7736H105.144V0.172284H109.944C111.24 0.172284 112.36 0.424557 113.303 0.929104C114.251 1.42955 114.981 2.1515 115.494 3.09496C116.01 4.03432 116.269 5.16032 116.269 6.47296C116.269 7.7856 116.013 8.91365 115.5 9.85711C114.987 10.7965 114.261 11.5184 113.322 12.023C112.382 12.5234 111.273 12.7736 109.993 12.7736ZM108.565 9.86942H109.87C110.493 9.86942 111.024 9.76892 111.463 9.56792C111.906 9.36692 112.243 9.0203 112.472 8.52806C112.706 8.03582 112.823 7.35079 112.823 6.47296C112.823 5.59513 112.704 4.9101 112.466 4.41786C112.233 3.92562 111.888 3.579 111.433 3.378C110.981 3.177 110.428 3.0765 109.771 3.0765H108.565V9.86942Z" fill="#151414"/>
<path d="M117.852 12.7736V0.172284H126.934V2.92883H121.273V5.09469H126.466V7.85123H121.273V10.0171H126.909V12.7736H117.852Z" fill="#151414"/>
<path d="M132.076 0.172284L134.66 9.05722H134.759L137.343 0.172284H141.207L137.048 12.7736H132.371L128.212 0.172284H132.076Z" fill="#151414"/>
<path d="M149.231 0.226892L144.62 12.9428H141.693L146.304 0.226892H149.231Z" fill="#151414"/>
<path d="M151.438 8.77188L156.692 6.63986L151.438 4.24557V1.73284L160 6.01379V7.46898L151.438 11.2677V8.77188Z" fill="#151414"/>
</svg>
