<?xml version="1.0" encoding="UTF-8"?>
<svg id="Layer_2" data-name="Layer 2" xmlns="http://www.w3.org/2000/svg" viewBox="0 0 263.73 134.74">
  <defs>
    <style>
      .cls-1 {
        fill: #fff;
      }
    </style>
  </defs>
  <g id="Layer_1-2" data-name="Layer 1">
    <g id="Lab8">
      <path class="cls-1" d="m80.25,97.47c0,.12,0,.25-.01.37v-.74c.01.12.01.25.01.37Z"/>
      <path class="cls-1" d="m80.25,97.47c0,.12,0,.25-.01.37v-.74c.01.12.01.25.01.37Z"/>
      <rect class="cls-1" width="22.91" height="134.74"/>
      <path class="cls-1" d="m146.19,60.19c-5.08,0-9.92,1.02-14.34,2.86V17.06h-22.91v117.68h22.91v-2.87c4.42,1.84,9.26,2.86,14.34,2.86,20.58,0,37.27-16.69,37.27-37.27s-16.69-37.27-37.27-37.27Zm0,51.6c-7.92,0-14.34-6.42-14.34-14.33s6.42-14.34,14.34-14.34,14.33,6.42,14.33,14.34-6.42,14.33-14.33,14.33Z"/>
      <path class="cls-1" d="m80.24,60.16v2.91c-4.41-1.85-9.25-2.86-14.33-2.86-20.58,0-37.26,16.68-37.26,37.26s16.68,37.27,37.26,37.27c5.08,0,9.92-1.01,14.33-2.85v2.85h22.91V60.16h-22.91Zm0,37.68c-.19,7.75-6.53,13.97-14.33,13.97s-14.33-6.42-14.33-14.34,6.42-14.33,14.33-14.33,14.14,6.22,14.33,13.96c.01.12.01.25.01.37s0,.25-.01.37Z"/>
      <path class="cls-1" d="m80.25,97.47c0,.12,0,.25-.01.37v-.74c.01.12.01.25.01.37Z"/>
      <path class="cls-1" d="m248.75,67.57c4.9-5.36,7.89-12.51,7.89-20.34,0-16.66-13.51-30.17-30.17-30.17s-30.17,13.51-30.17,30.17c0,7.83,2.99,14.98,7.89,20.34-9.1,6.8-14.99,17.65-14.99,29.88,0,20.59,16.68,37.27,37.27,37.27s37.26-16.68,37.26-37.27c0-12.23-5.89-23.08-14.98-29.88Zm-22.41-29c4.75,0,8.6,3.85,8.6,8.6s-3.85,8.6-8.6,8.6-8.6-3.85-8.6-8.6,3.85-8.6,8.6-8.6Zm.13,73.22c-7.92,0-14.34-6.42-14.34-14.34s6.42-14.33,14.34-14.33,14.33,6.42,14.33,14.33-6.42,14.34-14.33,14.34Z"/>
    </g>
  </g>
</svg>