<svg width="160" height="31" viewBox="0 0 160 31" fill="none" xmlns="http://www.w3.org/2000/svg">
<path d="M24.5857 24.7558C23.9898 24.7558 23.5332 24.5875 23.216 24.2511C22.8988 23.9147 22.7402 23.4485 22.7402 22.8526V6.06991C22.7402 5.45474 22.9036 4.98855 23.2304 4.67135C23.5573 4.35416 24.0186 4.19556 24.6146 4.19556H31.5641C33.7941 4.19556 35.5147 4.75306 36.7258 5.86806C37.9369 6.98305 38.5425 8.54021 38.5425 10.5395C38.5425 12.5388 37.9369 14.1008 36.7258 15.2254C35.5147 16.35 33.7941 16.9123 31.5641 16.9123H26.4313V22.8526C26.4313 23.4485 26.2775 23.9147 25.9699 24.2511C25.6623 24.5875 25.2009 24.7558 24.5857 24.7558ZM26.4313 13.9999H30.9874C32.2946 13.9999 33.2847 13.7067 33.9575 13.1204C34.6304 12.534 34.9668 11.6737 34.9668 10.5395C34.9668 9.40529 34.6304 8.54982 33.9575 7.9731C33.2847 7.39637 32.2946 7.10801 30.9874 7.10801H26.4313V13.9999Z" fill="white"/>
<path d="M41.8299 24.7556C41.2339 24.7556 40.7774 24.597 40.4602 24.2798C40.143 23.9626 39.9844 23.506 39.9844 22.9101V12.01C39.9844 11.414 40.1382 10.9623 40.4458 10.6547C40.7533 10.3471 41.1859 10.1933 41.7434 10.1933C42.3009 10.1933 42.7334 10.3471 43.041 10.6547C43.3486 10.9623 43.5024 11.414 43.5024 12.01V13.8267H43.214C43.4832 12.6732 44.0118 11.7985 44.8 11.2026C45.5882 10.6066 46.6359 10.251 47.9432 10.1356C48.3469 10.0972 48.6689 10.1981 48.9092 10.4384C49.1495 10.6787 49.2888 11.0488 49.3273 11.5486C49.3657 12.0292 49.2552 12.4185 48.9957 12.7165C48.7362 13.0145 48.3469 13.1923 47.8278 13.2499L47.1934 13.3076C46.0207 13.423 45.1364 13.7834 44.5405 14.389C43.9445 14.9945 43.6466 15.8452 43.6466 16.941V22.9101C43.6466 23.506 43.4928 23.9626 43.1852 24.2798C42.8776 24.597 42.4258 24.7556 41.8299 24.7556Z" fill="white"/>
<path d="M56.5645 24.8134C55.1035 24.8134 53.8347 24.5154 52.7581 23.9194C51.6816 23.3235 50.8453 22.4728 50.2494 21.3674C49.6534 20.262 49.3555 18.9596 49.3555 17.4601C49.3555 16.3259 49.5237 15.3118 49.8601 14.4179C50.1965 13.524 50.6819 12.755 51.3163 12.111C51.9507 11.467 52.7101 10.9768 53.5944 10.6404C54.4787 10.304 55.4687 10.1357 56.5645 10.1357C58.0255 10.1357 59.2943 10.4337 60.3709 11.0297C61.4474 11.6256 62.2837 12.4715 62.8796 13.5672C63.4756 14.663 63.7736 15.9607 63.7736 17.4601C63.7736 18.5944 63.6053 19.6132 63.2689 20.5168C62.9325 21.4203 62.4471 22.1941 61.8127 22.8381C61.1783 23.4821 60.4189 23.9723 59.5346 24.3087C58.6503 24.6451 57.6603 24.8134 56.5645 24.8134ZM56.5645 22.0739C57.2758 22.0739 57.9006 21.9009 58.4389 21.5549C58.9771 21.2088 59.3953 20.6946 59.6932 20.0121C59.9912 19.3297 60.1402 18.479 60.1402 17.4601C60.1402 15.9222 59.8134 14.7736 59.1598 14.0142C58.5062 13.2549 57.6411 12.8752 56.5645 12.8752C55.8532 12.8752 55.2284 13.0434 54.6902 13.3798C54.1519 13.7162 53.7338 14.2257 53.4358 14.9081C53.1378 15.5906 52.9888 16.4413 52.9888 17.4601C52.9888 18.9788 53.3156 20.1275 53.9693 20.9061C54.6229 21.6846 55.488 22.0739 56.5645 22.0739Z" fill="white"/>
<path d="M67.6667 24.7557C67.09 24.7557 66.6479 24.5971 66.3403 24.2799C66.0327 23.9627 65.8789 23.5061 65.8789 22.9102V12.0101C65.8789 11.4141 66.0327 10.9624 66.3403 10.6548C66.6479 10.3472 67.0804 10.1934 67.6379 10.1934C68.1954 10.1934 68.628 10.3472 68.9355 10.6548C69.2431 10.9624 69.3969 11.4141 69.3969 12.0101V14.1151L69.0797 13.25C69.4642 12.2888 70.0602 11.5295 70.8676 10.972C71.675 10.4145 72.6362 10.1357 73.7512 10.1357C74.8662 10.1357 75.8178 10.4049 76.5483 10.9432C77.2788 11.4814 77.7882 12.3081 78.0766 13.4231H77.6729C78.0574 12.4042 78.6918 11.6016 79.5761 11.0152C80.4604 10.4289 81.4793 10.1357 82.6327 10.1357C83.7093 10.1357 84.5984 10.3472 85.3001 10.7701C86.0018 11.1931 86.5256 11.8323 86.8716 12.6877C87.2177 13.5432 87.3907 14.6246 87.3907 15.9318V22.9102C87.3907 23.5061 87.2321 23.9627 86.9149 24.2799C86.5977 24.5971 86.1507 24.7557 85.574 24.7557C84.9973 24.7557 84.5551 24.5971 84.2476 24.2799C83.94 23.9627 83.7862 23.5061 83.7862 22.9102V16.076C83.7862 14.9994 83.6084 14.2113 83.2527 13.7114C82.8971 13.2116 82.2963 12.9617 81.4504 12.9617C80.5085 12.9617 79.7683 13.2933 79.2301 13.9565C78.6918 14.6198 78.4226 15.5377 78.4226 16.7104V22.9102C78.4226 23.5061 78.2688 23.9627 77.9613 24.2799C77.6537 24.5971 77.2115 24.7557 76.6348 24.7557C76.0581 24.7557 75.6111 24.5971 75.2939 24.2799C74.9767 23.9627 74.8181 23.5061 74.8181 22.9102V16.076C74.8181 14.9994 74.6403 14.2113 74.2847 13.7114C73.929 13.2116 73.3379 12.9617 72.5112 12.9617C71.5692 12.9617 70.8291 13.2933 70.2908 13.9565C69.7526 14.6198 69.4834 15.5377 69.4834 16.7104V22.9102C69.4834 24.1405 68.8779 24.7557 67.6667 24.7557Z" fill="white"/>
<path d="M96.6172 24.8134C95.1562 24.8134 93.8874 24.5154 92.8109 23.9194C91.7343 23.3235 90.8981 22.4728 90.3021 21.3674C89.7062 20.262 89.4082 18.9596 89.4082 17.4601C89.4082 16.3259 89.5764 15.3118 89.9128 14.4179C90.2493 13.524 90.7347 12.755 91.3691 12.111C92.0035 11.467 92.7628 10.9768 93.6471 10.6404C94.5314 10.304 95.5215 10.1357 96.6172 10.1357C98.0783 10.1357 99.3471 10.4337 100.424 11.0297C101.5 11.6256 102.336 12.4715 102.932 13.5672C103.528 14.663 103.826 15.9607 103.826 17.4601C103.826 18.5944 103.658 19.6132 103.322 20.5168C102.985 21.4203 102.5 22.1941 101.865 22.8381C101.231 23.4821 100.472 23.9723 99.5874 24.3087C98.7031 24.6451 97.713 24.8134 96.6172 24.8134ZM96.6172 22.0739C97.3285 22.0739 97.9533 21.9009 98.4916 21.5549C99.0299 21.2088 99.448 20.6946 99.746 20.0121C100.044 19.3297 100.193 18.479 100.193 17.4601C100.193 15.9222 99.8661 14.7736 99.2125 14.0142C98.5589 13.2549 97.6938 12.8752 96.6172 12.8752C95.906 12.8752 95.2812 13.0434 94.7429 13.3798C94.2046 13.7162 93.7865 14.2257 93.4885 14.9081C93.1905 15.5906 93.0416 16.4413 93.0416 17.4601C93.0416 18.9788 93.3684 20.1275 94.022 20.9061C94.6756 21.6846 95.5407 22.0739 96.6172 22.0739Z" fill="white"/>
<path d="M112.449 30.0039C111.411 30.0039 110.406 29.9077 109.436 29.7155C108.465 29.5233 107.585 29.2253 106.797 28.8216C106.432 28.6293 106.187 28.3987 106.062 28.1295C105.937 27.8604 105.898 27.5864 105.946 27.3077C105.994 27.0289 106.11 26.7838 106.292 26.5724C106.475 26.3609 106.701 26.2167 106.97 26.1398C107.239 26.0629 107.518 26.1014 107.806 26.2552C108.652 26.6781 109.455 26.952 110.214 27.077C110.973 27.202 111.622 27.2644 112.161 27.2644C113.449 27.2644 114.415 26.952 115.059 26.3273C115.703 25.7025 116.025 24.7749 116.025 23.5446V20.9493H116.284C115.996 21.9297 115.395 22.7131 114.482 23.2995C113.569 23.8858 112.535 24.179 111.382 24.179C110.113 24.179 109.008 23.8858 108.066 23.2995C107.124 22.7131 106.393 21.8913 105.874 20.834C105.355 19.7766 105.096 18.5463 105.096 17.1429C105.096 16.0856 105.245 15.1292 105.543 14.2737C105.841 13.4183 106.264 12.6829 106.811 12.0678C107.359 11.4526 108.023 10.9768 108.801 10.6404C109.58 10.304 110.44 10.1357 111.382 10.1357C112.574 10.1357 113.617 10.4289 114.511 11.0152C115.405 11.6016 115.986 12.3754 116.255 13.3366L115.967 14.0575V12.0101C115.967 11.4141 116.126 10.9624 116.443 10.6548C116.76 10.3472 117.197 10.1934 117.755 10.1934C118.312 10.1934 118.774 10.3472 119.081 10.6548C119.389 10.9624 119.543 11.4141 119.543 12.0101V23.112C119.543 25.3997 118.937 27.1203 117.726 28.2737C116.515 29.4271 114.756 30.0039 112.449 30.0039ZM112.362 21.4395C113.112 21.4395 113.756 21.2665 114.294 20.9205C114.833 20.5744 115.251 20.0794 115.549 19.4354C115.847 18.7914 115.996 18.0272 115.996 17.1429C115.996 15.8165 115.669 14.7736 115.015 14.0142C114.362 13.2549 113.477 12.8752 112.362 12.8752C111.613 12.8752 110.969 13.0482 110.43 13.3942C109.892 13.7403 109.474 14.2305 109.176 14.8649C108.878 15.4993 108.729 16.2586 108.729 17.1429C108.729 18.4694 109.056 19.5171 109.709 20.2861C110.363 21.055 111.247 21.4395 112.362 21.4395Z" fill="white"/>
<path d="M127.011 24.8134C125.993 24.8134 125.084 24.6163 124.286 24.2222C123.489 23.8281 122.864 23.2947 122.412 22.6218C121.96 21.949 121.734 21.1896 121.734 20.3438C121.734 19.3056 122.004 18.4838 122.542 17.8783C123.08 17.2727 123.955 16.8353 125.166 16.5662C126.377 16.2971 128.001 16.1625 130.039 16.1625H131.481V18.2387H130.068C128.876 18.2387 127.925 18.2964 127.213 18.4117C126.502 18.5271 125.997 18.7241 125.699 19.0029C125.401 19.2816 125.252 19.6709 125.252 20.1707C125.252 20.8051 125.473 21.3242 125.916 21.7279C126.358 22.1316 126.973 22.3334 127.761 22.3334C128.396 22.3334 128.958 22.1845 129.448 21.8865C129.938 21.5885 130.328 21.18 130.616 20.6609C130.904 20.1419 131.048 19.5459 131.048 18.8731V15.5569C131.048 14.5957 130.837 13.9037 130.414 13.4807C129.991 13.0578 129.28 12.8463 128.28 12.8463C127.723 12.8463 127.122 12.9136 126.478 13.0482C125.834 13.1828 125.156 13.4135 124.445 13.7403C124.08 13.9133 123.758 13.9613 123.479 13.8844C123.2 13.8075 122.984 13.6489 122.83 13.4086C122.676 13.1683 122.599 12.904 122.599 12.6157C122.599 12.3273 122.676 12.0437 122.83 11.765C122.984 11.4862 123.243 11.2796 123.609 11.145C124.493 10.7798 125.344 10.5202 126.161 10.3664C126.978 10.2126 127.723 10.1357 128.396 10.1357C129.78 10.1357 130.919 10.3472 131.813 10.7701C132.707 11.1931 133.375 11.8323 133.817 12.6877C134.259 13.5432 134.48 14.6438 134.48 15.9895V22.9102C134.48 23.5061 134.336 23.9627 134.047 24.2799C133.759 24.5971 133.346 24.7557 132.807 24.7557C132.269 24.7557 131.851 24.5971 131.553 24.2799C131.255 23.9627 131.106 23.5061 131.106 22.9102V21.526H131.337C131.202 22.1989 130.938 22.7804 130.544 23.2706C130.15 23.7608 129.655 24.1405 129.059 24.4097C128.463 24.6788 127.78 24.8134 127.011 24.8134Z" fill="white"/>
<path d="M143.678 24.8134C142.429 24.8134 141.386 24.602 140.549 24.179C139.713 23.7561 139.093 23.1361 138.689 22.3191C138.286 21.5021 138.084 20.488 138.084 19.2769V13.1348H136.584C136.123 13.1348 135.767 13.0146 135.517 12.7743C135.268 12.534 135.143 12.2024 135.143 11.7795C135.143 11.3565 135.268 11.0009 135.517 10.7702C135.767 10.5395 136.123 10.4242 136.584 10.4242H138.084V7.80008C138.084 7.20413 138.242 6.75236 138.56 6.44478C138.877 6.13719 139.324 5.9834 139.901 5.9834C140.477 5.9834 140.919 6.13719 141.227 6.44478C141.535 6.75236 141.688 7.20413 141.688 7.80008V10.4242H144.745C145.206 10.4242 145.562 10.5395 145.812 10.7702C146.062 11.0009 146.187 11.3373 146.187 11.7795C146.187 12.2216 146.062 12.534 145.812 12.7743C145.562 13.0146 145.206 13.1348 144.745 13.1348H141.688V19.075C141.688 19.9978 141.89 20.6898 142.294 21.1512C142.698 21.6126 143.351 21.8433 144.255 21.8433C144.582 21.8433 144.87 21.8145 145.12 21.7568C145.37 21.6991 145.591 21.6607 145.783 21.6414C146.014 21.6222 146.206 21.6943 146.36 21.8577C146.514 22.0211 146.591 22.3527 146.591 22.8526C146.591 23.237 146.528 23.5783 146.403 23.8762C146.278 24.1742 146.052 24.3809 145.725 24.4962C145.476 24.5731 145.149 24.6452 144.745 24.7125C144.341 24.7798 143.986 24.8134 143.678 24.8134Z" fill="white"/>
<path d="M154.175 24.8134C152.579 24.8134 151.205 24.5154 150.051 23.9194C148.898 23.3235 148.009 22.4776 147.384 21.3819C146.759 20.2861 146.447 18.9884 146.447 17.489C146.447 15.9895 146.75 14.7495 147.355 13.6538C147.961 12.558 148.797 11.6977 149.864 11.0729C150.931 10.4481 152.147 10.1357 153.512 10.1357C154.511 10.1357 155.41 10.2991 156.208 10.626C157.006 10.9528 157.688 11.4238 158.255 12.0389C158.822 12.6541 159.255 13.399 159.553 14.2737C159.851 15.1484 160 16.1337 160 17.2294C160 17.5755 159.88 17.8398 159.639 18.0224C159.399 18.2051 159.058 18.2964 158.616 18.2964H149.359V16.2202H157.462L157.001 16.6527C157.001 15.7684 156.871 15.0283 156.612 14.4323C156.352 13.8364 155.977 13.3798 155.487 13.0626C154.997 12.7454 154.386 12.5868 153.656 12.5868C152.848 12.5868 152.161 12.7743 151.594 13.1491C151.027 13.524 150.594 14.0527 150.296 14.7351C149.998 15.4176 149.849 16.2298 149.849 17.1718V17.3736C149.849 18.95 150.22 20.1275 150.96 20.9061C151.7 21.6846 152.791 22.0739 154.233 22.0739C154.732 22.0739 155.295 22.0114 155.919 21.8865C156.544 21.7615 157.135 21.5453 157.693 21.2377C158.097 21.007 158.452 20.9061 158.76 20.9349C159.067 20.9637 159.313 21.0743 159.495 21.2665C159.678 21.4587 159.788 21.6942 159.827 21.973C159.865 22.2517 159.812 22.5353 159.668 22.8237C159.524 23.112 159.279 23.3619 158.933 23.5734C158.26 23.9963 157.486 24.3087 156.612 24.5106C155.737 24.7124 154.925 24.8134 154.175 24.8134Z" fill="white"/>
<path d="M16.962 5.63271L12.1944 1.70378C11.4254 1.06938 10.4042 0.720947 9.31799 0.720947C8.23183 0.720947 7.21055 1.06938 6.44159 1.70378L5.6582 2.35019C6.01625 2.14594 6.39833 2.00416 6.79483 1.93928C7.4124 1.83595 8.00114 1.93447 8.50578 2.21803C8.7629 2.14113 9.03684 2.10028 9.31799 2.10028C9.9596 2.10028 10.5604 2.30694 11.0145 2.6794L15.7845 6.61074C16.2387 6.9832 16.4862 7.48063 16.4862 8.00929V23.0858C16.4862 24.1768 15.4096 25.0635 14.088 25.0635H13.5906V25.7051C13.5906 25.9622 13.5689 26.2073 13.5257 26.438H14.088C16.3324 26.438 18.1563 24.9337 18.1563 23.0858V8.00449C18.1563 7.10816 17.7334 6.26711 16.9644 5.63271H16.962Z" fill="white"/>
<path d="M6.79395 6.99283C6.62333 7.00725 6.46233 7.09135 6.33978 7.22832C6.08987 7.51188 6.08987 7.94202 6.33978 8.19193C6.45993 8.31449 6.62333 8.37456 6.79395 8.36495C6.96456 8.35534 7.12556 8.27364 7.24812 8.13666C7.36827 7.99969 7.43555 7.81947 7.43555 7.63443C7.43555 7.4494 7.36827 7.28119 7.24812 7.15864C7.12797 7.03849 6.96456 6.97841 6.79395 6.99283Z" fill="white"/>
<path d="M12.6735 6.35127L9.0065 2.58574C8.85271 2.43916 8.6845 2.31661 8.50427 2.21568C7.99964 1.93212 7.4109 1.8336 6.79332 1.93693C6.39683 2.00181 6.01475 2.14599 5.6567 2.34785L4.63061 3.19371C4.61379 3.21053 4.59697 3.22735 4.58255 3.24657L0.915549 7.31968C0.752144 7.48789 0.610366 7.67052 0.487812 7.86277C0.170614 8.35779 0 8.91529 0 9.4848V22.7615C0 24.3907 1.40336 26.0992 3.12873 26.5702L10.4627 28.5768C11.9718 28.9901 13.2358 28.0529 13.5266 26.4333C13.5674 26.2026 13.5915 25.9575 13.5915 25.7003V8.91529C13.5915 7.91803 13.267 7.00489 12.6759 6.35127H12.6735ZM8.00444 8.04539C7.94196 8.24965 7.84344 8.44189 7.70166 8.60289C7.45896 8.87684 7.13695 9.03544 6.79332 9.05226C6.44969 9.06668 6.12769 8.94172 5.88498 8.69661C5.38516 8.19919 5.38516 7.35092 5.88498 6.78621C6.12769 6.50987 6.44969 6.33925 6.79332 6.30801C7.13695 6.27678 7.45896 6.39212 7.70166 6.63242C7.70887 6.63963 7.71368 6.64924 7.72089 6.65645C7.94917 6.89916 8.07653 7.22837 8.07653 7.59122C8.07653 7.74742 8.0477 7.89881 8.00444 8.04539ZM11.1067 17.3282C10.643 17.7344 9.89321 17.7344 9.43183 17.3282C9.06177 17.0038 8.99208 16.5184 9.21556 16.1267C9.27083 16.0282 9.34052 15.9369 9.43183 15.8552C9.83314 15.502 10.4507 15.4563 10.9097 15.7158C10.9794 15.7543 11.0467 15.7999 11.1067 15.8552C11.5705 16.2613 11.5705 16.9197 11.1067 17.3282Z" fill="white"/>
<path d="M7.72054 6.65407C7.72054 6.65407 7.70852 6.63725 7.70131 6.63004C7.45861 6.38733 7.13661 6.27439 6.79298 6.30563C6.44934 6.33687 6.12734 6.50749 5.88464 6.78383C5.38481 7.34854 5.38481 8.1968 5.88464 8.69423C6.12734 8.93693 6.44934 9.06429 6.79298 9.04988C7.13661 9.03546 7.45861 8.87686 7.70131 8.60051C7.84309 8.43951 7.94162 8.24727 8.0041 8.04301C8.04975 7.89643 8.07619 7.74504 8.07619 7.58884C8.07619 7.22599 7.94883 6.89437 7.72054 6.65407ZM7.24715 8.13433C7.12699 8.2713 6.96599 8.353 6.79298 8.36261C6.62236 8.37222 6.46136 8.30975 6.33881 8.1896C6.08889 7.93968 6.08889 7.50954 6.33881 7.22599C6.45896 7.08901 6.62236 7.00491 6.79298 6.99049C6.96359 6.97607 7.12459 7.03615 7.24715 7.1563C7.3673 7.27885 7.43458 7.44706 7.43458 7.6321C7.43458 7.81713 7.3673 7.99495 7.24715 8.13433Z" fill="#5528FF"/>
<path d="M11.1093 15.8528C11.0492 15.7999 10.9819 15.7543 10.9122 15.7134C10.4533 15.4539 9.83569 15.4996 9.43439 15.8528C9.34307 15.9345 9.27339 16.0282 9.21812 16.1244C8.99704 16.5136 9.06432 16.999 9.43439 17.3259C9.89817 17.732 10.6479 17.732 11.1093 17.3259C11.5707 16.9197 11.5731 16.2613 11.1093 15.8528Z" fill="#5528FF"/>
<path d="M16.962 5.39223L12.1944 1.4633C11.4254 0.828906 10.4042 0.480469 9.31799 0.480469C8.23183 0.480469 7.21055 0.828906 6.44159 1.4633L5.6582 2.10971C6.01625 1.90546 6.39833 1.76368 6.79483 1.6988C7.4124 1.59547 8.00114 1.69399 8.50578 1.97755C8.7629 1.90065 9.03684 1.8598 9.31799 1.8598C9.9596 1.8598 10.5604 2.06646 11.0145 2.43893L15.7845 6.37026C16.2387 6.74273 16.4862 7.24015 16.4862 7.76881V22.8453C16.4862 23.9363 15.4096 24.823 14.088 24.823H13.5906V25.4646C13.5906 25.7217 13.5689 25.9668 13.5257 26.1975H14.088C16.3324 26.1975 18.1563 24.6932 18.1563 22.8453V7.76401C18.1563 6.86768 17.7334 6.02663 16.9644 5.39223H16.962Z" fill="white"/>
<path d="M6.79395 6.75235C6.62333 6.76677 6.46233 6.85087 6.33978 6.98785C6.08987 7.2714 6.08987 7.70154 6.33978 7.95145C6.45993 8.07401 6.62333 8.13408 6.79395 8.12447C6.96456 8.11486 7.12556 8.03316 7.24812 7.89619C7.36827 7.75921 7.43555 7.57899 7.43555 7.39396C7.43555 7.20892 7.36827 7.04071 7.24812 6.91816C7.12797 6.79801 6.96456 6.73793 6.79395 6.75235Z" fill="white"/>
<path d="M12.6735 6.11079L9.0065 2.34527C8.85271 2.19868 8.6845 2.07613 8.50427 1.9752C7.99964 1.69165 7.4109 1.59312 6.79332 1.69645C6.39683 1.76133 6.01475 1.90551 5.6567 2.10737L4.63061 2.95323C4.61379 2.97005 4.59697 2.98687 4.58255 3.0061L0.915549 7.07921C0.752144 7.24742 0.610366 7.43005 0.487812 7.62229C0.170614 8.11731 0 8.67481 0 9.24432V22.521C0 24.1502 1.40336 25.8588 3.12873 26.3298L10.4627 28.3363C11.9718 28.7496 13.2358 27.8124 13.5266 26.1928C13.5674 25.9621 13.5915 25.717 13.5915 25.4599V8.67481C13.5915 7.67756 13.267 6.76441 12.6759 6.11079H12.6735ZM8.00444 7.80492C7.94196 8.00917 7.84344 8.20141 7.70166 8.36242C7.45896 8.63636 7.13695 8.79496 6.79332 8.81178C6.44969 8.8262 6.12769 8.70124 5.88498 8.45613C5.38516 7.95871 5.38516 7.11044 5.88498 6.54574C6.12769 6.26939 6.44969 6.09878 6.79332 6.06754C7.13695 6.0363 7.45896 6.15164 7.70166 6.39194C7.70887 6.39915 7.71368 6.40876 7.72089 6.41597C7.94917 6.65868 8.07653 6.98789 8.07653 7.35075C8.07653 7.50694 8.0477 7.65833 8.00444 7.80492ZM11.1067 17.0878C10.643 17.4939 9.89321 17.4939 9.43183 17.0878C9.06177 16.7634 8.99208 16.2779 9.21556 15.8863C9.27083 15.7877 9.34052 15.6964 9.43183 15.6147C9.83314 15.2615 10.4507 15.2158 10.9097 15.4753C10.9794 15.5138 11.0467 15.5594 11.1067 15.6147C11.5705 16.0208 11.5705 16.6793 11.1067 17.0878Z" fill="white"/>
<path d="M7.72054 6.41359C7.72054 6.41359 7.70852 6.39677 7.70131 6.38956C7.45861 6.14686 7.13661 6.03391 6.79298 6.06515C6.44934 6.09639 6.12734 6.26701 5.88464 6.54335C5.38481 7.10806 5.38481 7.95633 5.88464 8.45375C6.12734 8.69645 6.44934 8.82381 6.79298 8.8094C7.13661 8.79498 7.45861 8.63638 7.70131 8.36003C7.84309 8.19903 7.94162 8.00679 8.0041 7.80253C8.04975 7.65595 8.07619 7.50456 8.07619 7.34836C8.07619 6.98551 7.94883 6.65389 7.72054 6.41359ZM7.24715 7.89385C7.12699 8.03082 6.96599 8.11252 6.79298 8.12213C6.62236 8.13175 6.46136 8.06927 6.33881 7.94912C6.08889 7.6992 6.08889 7.26906 6.33881 6.98551C6.45896 6.84854 6.62236 6.76443 6.79298 6.75001C6.96359 6.73559 7.12459 6.79567 7.24715 6.91582C7.3673 7.03837 7.43458 7.20659 7.43458 7.39162C7.43458 7.57665 7.3673 7.75447 7.24715 7.89385Z" fill="#5528FF"/>
<path d="M11.1093 15.6121C11.0492 15.5592 10.9819 15.5136 10.9122 15.4727C10.4533 15.2132 9.83569 15.2588 9.43439 15.6121C9.34307 15.6938 9.27339 15.7875 9.21812 15.8836C8.99704 16.2729 9.06432 16.7583 9.43439 17.0851C9.89817 17.4912 10.6479 17.4912 11.1093 17.0851C11.5707 16.679 11.5731 16.0206 11.1093 15.6121Z" fill="#5528FF"/>
<path d="M16.962 5.152L12.1944 1.22307C11.4254 0.588672 10.4042 0.240234 9.31799 0.240234C8.23183 0.240234 7.21055 0.588672 6.44159 1.22307L5.6582 1.86948C6.01625 1.66522 6.39833 1.52344 6.79483 1.45856C7.4124 1.35523 8.00114 1.45376 8.50578 1.73731C8.7629 1.66042 9.03684 1.61956 9.31799 1.61956C9.9596 1.61956 10.5604 1.82622 11.0145 2.19869L15.7845 6.13002C16.2387 6.50249 16.4862 6.99992 16.4862 7.52858V22.6051C16.4862 23.6961 15.4096 24.5828 14.088 24.5828H13.5906V25.2244C13.5906 25.4815 13.5689 25.7266 13.5257 25.9573H14.088C16.3324 25.9573 18.1563 24.453 18.1563 22.6051V7.52377C18.1563 6.62745 17.7334 5.78639 16.9644 5.152H16.962Z" fill="white"/>
<path d="M6.79395 6.51212C6.62333 6.52653 6.46233 6.61064 6.33978 6.74761C6.08987 7.03117 6.08987 7.46131 6.33978 7.71122C6.45993 7.83377 6.62333 7.89385 6.79395 7.88424C6.96456 7.87463 7.12556 7.79292 7.24812 7.65595C7.36827 7.51898 7.43555 7.33875 7.43555 7.15372C7.43555 6.96869 7.36827 6.80048 7.24812 6.67792C7.12797 6.55777 6.96456 6.4977 6.79395 6.51212Z" fill="white"/>
<path d="M12.6735 5.87056L9.0065 2.10503C8.85271 1.95845 8.6845 1.83589 8.50427 1.73497C7.99964 1.45141 7.4109 1.35289 6.79332 1.45622C6.39683 1.5211 6.01475 1.66528 5.6567 1.86713L4.63061 2.71299C4.61379 2.72982 4.59697 2.74664 4.58255 2.76586L0.915549 6.83897C0.752144 7.00718 0.610366 7.18981 0.487812 7.38205C0.170614 7.87707 0 8.43457 0 9.00409V22.2807C0 23.91 1.40336 25.6185 3.12873 26.0895L10.4627 28.096C11.9718 28.5094 13.2358 27.5722 13.5266 25.9526C13.5674 25.7219 13.5915 25.4768 13.5915 25.2196V8.43457C13.5915 7.43732 13.267 6.52418 12.6759 5.87056H12.6735ZM8.00444 7.56468C7.94196 7.76894 7.84344 7.96118 7.70166 8.12218C7.45896 8.39613 7.13695 8.55472 6.79332 8.57154C6.44969 8.58596 6.12769 8.46101 5.88498 8.2159C5.38516 7.71847 5.38516 6.87021 5.88498 6.3055C6.12769 6.02916 6.44969 5.85854 6.79332 5.8273C7.13695 5.79606 7.45896 5.91141 7.70166 6.15171C7.70887 6.15892 7.71368 6.16853 7.72089 6.17574C7.94917 6.41844 8.07653 6.74766 8.07653 7.11051C8.07653 7.26671 8.0477 7.4181 8.00444 7.56468ZM11.1067 16.8475C10.643 17.2536 9.89321 17.2536 9.43183 16.8475C9.06177 16.5231 8.99208 16.0377 9.21556 15.646C9.27083 15.5475 9.34052 15.4562 9.43183 15.3745C9.83314 15.0212 10.4507 14.9756 10.9097 15.2351C10.9794 15.2736 11.0467 15.3192 11.1067 15.3745C11.5705 15.7806 11.5705 16.439 11.1067 16.8475Z" fill="white"/>
<path d="M7.72054 6.17311C7.72054 6.17311 7.70852 6.15629 7.70131 6.14908C7.45861 5.90638 7.13661 5.79344 6.79298 5.82467C6.44934 5.85591 6.12734 6.02653 5.88464 6.30287C5.38481 6.86758 5.38481 7.71585 5.88464 8.21327C6.12734 8.45598 6.44934 8.58334 6.79298 8.56892C7.13661 8.5545 7.45861 8.3959 7.70131 8.11955C7.84309 7.95855 7.94162 7.76631 8.0041 7.56205C8.04975 7.41547 8.07619 7.26408 8.07619 7.10788C8.07619 6.74503 7.94883 6.41341 7.72054 6.17311ZM7.24715 7.65337C7.12699 7.79034 6.96599 7.87204 6.79298 7.88166C6.62236 7.89127 6.46136 7.82879 6.33881 7.70864C6.08889 7.45873 6.08889 7.02859 6.33881 6.74503C6.45896 6.60806 6.62236 6.52395 6.79298 6.50953C6.96359 6.49512 7.12459 6.55519 7.24715 6.67534C7.3673 6.7979 7.43458 6.96611 7.43458 7.15114C7.43458 7.33617 7.3673 7.51399 7.24715 7.65337Z" fill="#5528FF"/>
<path d="M11.1093 15.3719C11.0492 15.319 10.9819 15.2733 10.9122 15.2325C10.4533 14.973 9.83569 15.0186 9.43439 15.3719C9.34307 15.4536 9.27339 15.5473 9.21812 15.6434C8.99704 16.0327 9.06432 16.5181 9.43439 16.8449C9.89817 17.251 10.6479 17.251 11.1093 16.8449C11.5707 16.4388 11.5731 15.7804 11.1093 15.3719Z" fill="#5528FF"/>
<path d="M16.962 4.91176L12.1944 0.982833C11.4254 0.348437 10.4042 0 9.31799 0C8.23183 0 7.21055 0.348437 6.44159 0.982833L5.6582 1.62924C6.01625 1.42499 6.39833 1.28321 6.79483 1.21833C7.4124 1.115 8.00114 1.21352 8.50578 1.49708C8.7629 1.42018 9.03684 1.37933 9.31799 1.37933C9.9596 1.37933 10.5604 1.58599 11.0145 1.95846L15.7845 5.88979C16.2387 6.26226 16.4862 6.75968 16.4862 7.28834V22.3649C16.4862 23.4558 15.4096 24.3425 14.088 24.3425H13.5906V24.9841C13.5906 25.2413 13.5689 25.4864 13.5257 25.7171H14.088C16.3324 25.7171 18.1563 24.2128 18.1563 22.3649V7.28354C18.1563 6.38721 17.7334 5.54616 16.9644 4.91176H16.962Z" fill="white"/>
<path d="M6.79395 6.27188C6.62333 6.2863 6.46233 6.37041 6.33978 6.50738C6.08987 6.79093 6.08987 7.22107 6.33978 7.47099C6.45993 7.59354 6.62333 7.65361 6.79395 7.644C6.96456 7.63439 7.12556 7.55269 7.24812 7.41572C7.36827 7.27874 7.43555 7.09852 7.43555 6.91349C7.43555 6.72845 7.36827 6.56024 7.24812 6.43769C7.12797 6.31754 6.96456 6.25746 6.79395 6.27188Z" fill="white"/>
<path d="M12.6735 5.63032L9.0065 1.8648C8.85271 1.71821 8.6845 1.59566 8.50427 1.49473C7.99964 1.21118 7.4109 1.11265 6.79332 1.21598C6.39683 1.28086 6.01475 1.42505 5.6567 1.6269L4.63061 2.47276C4.61379 2.48958 4.59697 2.5064 4.58255 2.52563L0.915549 6.59874C0.752144 6.76695 0.610366 6.94958 0.487812 7.14182C0.170614 7.63684 0 8.19434 0 8.76385V22.0405C0 23.6698 1.40336 25.3783 3.12873 25.8493L10.4627 27.8558C11.9718 28.2691 13.2358 27.332 13.5266 25.7123C13.5674 25.4816 13.5915 25.2365 13.5915 24.9794V8.19434C13.5915 7.19709 13.267 6.28394 12.6759 5.63032H12.6735ZM8.00444 7.32445C7.94196 7.5287 7.84344 7.72095 7.70166 7.88195C7.45896 8.15589 7.13695 8.31449 6.79332 8.33131C6.44969 8.34573 6.12769 8.22077 5.88498 7.97566C5.38516 7.47824 5.38516 6.62998 5.88498 6.06527C6.12769 5.78892 6.44969 5.61831 6.79332 5.58707C7.13695 5.55583 7.45896 5.67117 7.70166 5.91147C7.70887 5.91868 7.71368 5.9283 7.72089 5.93551C7.94917 6.17821 8.07653 6.50742 8.07653 6.87028C8.07653 7.02647 8.0477 7.17786 8.00444 7.32445ZM11.1067 16.6073C10.643 17.0134 9.89321 17.0134 9.43183 16.6073C9.06177 16.2829 8.99208 15.7975 9.21556 15.4058C9.27083 15.3073 9.34052 15.2159 9.43183 15.1342C9.83314 14.781 10.4507 14.7353 10.9097 14.9949C10.9794 15.0333 11.0467 15.079 11.1067 15.1342C11.5705 15.5404 11.5705 16.1988 11.1067 16.6073Z" fill="white"/>
<path d="M7.72054 5.93288C7.72054 5.93288 7.70852 5.91606 7.70131 5.90885C7.45861 5.66614 7.13661 5.5532 6.79298 5.58444C6.44934 5.61568 6.12734 5.78629 5.88464 6.06264C5.38481 6.62735 5.38481 7.47561 5.88464 7.97304C6.12734 8.21574 6.44934 8.3431 6.79298 8.32868C7.13661 8.31427 7.45861 8.15567 7.70131 7.87932C7.84309 7.71832 7.94162 7.52608 8.0041 7.32182C8.04975 7.17524 8.07619 7.02385 8.07619 6.86765C8.07619 6.5048 7.94883 6.17318 7.72054 5.93288ZM7.24715 7.41314C7.12699 7.55011 6.96599 7.63181 6.79298 7.64142C6.62236 7.65103 6.46136 7.58856 6.33881 7.4684C6.08889 7.21849 6.08889 6.78835 6.33881 6.5048C6.45896 6.36782 6.62236 6.28372 6.79298 6.2693C6.96359 6.25488 7.12459 6.31496 7.24715 6.43511C7.3673 6.55766 7.43458 6.72587 7.43458 6.9109C7.43458 7.09594 7.3673 7.27376 7.24715 7.41314Z" fill="white"/>
<path d="M11.1093 15.1316C11.0492 15.0788 10.9819 15.0331 10.9122 14.9922C10.4533 14.7327 9.83569 14.7784 9.43439 15.1316C9.34307 15.2133 9.27339 15.307 9.21812 15.4032C8.99704 15.7924 9.06432 16.2779 9.43439 16.6047C9.89817 17.0108 10.6479 17.0108 11.1093 16.6047C11.5707 16.1986 11.5731 15.5401 11.1093 15.1316Z" fill="white"/>
</svg>
